<svg xmlns="http://www.w3.org/2000/svg" width="50" height="62.215" viewBox="0 0 50 62.215"><g id="spacecraft-3240_6a607206-a24b-4dbf-90db-0994df49b8c2" transform="translate(-7 -0.785)"><circle id="layer1" cx="4" cy="4" r="4" transform="translate(28 18)" fill="none" stroke="#fff" stroke-linecap="round" stroke-width="2"></circle><path id="layer2" d="M22,26H18.9A2.9,2.9,0,0,0,16,28.9V41.1A2.9,2.9,0,0,1,13.6,44H10.9A2.9,2.9,0,0,0,8,46.9V58h8M42,26h3.1A2.9,2.9,0,0,1,48,28.9V41.1A2.9,2.9,0,0,0,50.4,44H53a2.9,2.9,0,0,1,3,2.9V58H48M28,58h8m6-6V19.8C42,8.9,32,2,32,2S22,8.9,22,19.8V52" fill="none" stroke="#fff" stroke-linecap="round" stroke-width="2"></path><path id="layer1-2" data-name="layer1" d="M28,62V58a6,6,0,1,0-12,0v4Zm20,0V58a6,6,0,0,0-12,0v4Z" fill="none" stroke="#fff" stroke-linecap="round" stroke-width="2"></path></g></svg>